<?xml version="1.0" standalone="no"?>
<!DOCTYPE svg PUBLIC "-//W3C//DTD SVG 20010904//EN"
 "http://www.w3.org/TR/2001/REC-SVG-20010904/DTD/svg10.dtd">
<svg version="1.0" xmlns="http://www.w3.org/2000/svg"
 width="225.000000pt" height="225.000000pt" viewBox="0 0 225.000000 225.000000"
 preserveAspectRatio="xMidYMid meet">
<metadata>
Created by potrace 1.14, written by Peter Selinger 2001-2017
</metadata>
<g transform="translate(0.000000,225.000000) scale(0.100000,-0.100000)"
fill="#000000" stroke="none">
<path d="M468 2223 c6 -2 18 -2 25 0 6 3 1 5 -13 5 -14 0 -19 -2 -12 -5z"/>
<path d="M1733 2220 c-12 -5 -29 -23 -38 -39 l-16 -31 88 2 c86 1 87 1 28 8
l-60 7 53 1 c58 2 64 11 26 41 -29 23 -46 25 -81 11z"/>
<path d="M1598 2213 c12 -2 32 -2 45 0 12 2 2 4 -23 4 -25 0 -35 -2 -22 -4z"/>
<path d="M422 2198 c-5 -7 -13 -23 -16 -35 -7 -23 -6 -23 78 -23 47 0 86 3 86
6 0 3 -8 19 -17 35 -16 26 -23 29 -69 29 -29 0 -56 -5 -62 -12z"/>
<path d="M2173 2163 c15 -2 39 -2 55 0 15 2 2 4 -28 4 -30 0 -43 -2 -27 -4z"/>
<path d="M1991 2143 c-65 -3 -98 -8 -108 -18 -13 -13 9 -15 176 -15 184 0 191
1 191 20 0 22 1 22 -259 13z"/>
<path d="M450 2100 l55 -7 -57 -1 c-32 -1 -58 -6 -58 -12 0 -6 43 -10 110 -10
67 0 110 4 110 10 0 6 21 11 48 11 l47 2 -60 7 c-33 4 -103 8 -155 7 -82 0
-87 -1 -40 -7z"/>
<path d="M1650 2100 c0 -6 40 -10 100 -10 60 0 100 4 100 10 0 6 -40 10 -100
10 -60 0 -100 -4 -100 -10z"/>
<path d="M2083 2083 c31 -2 83 -2 115 0 31 2 5 3 -58 3 -63 0 -89 -1 -57 -3z"/>
<path d="M1630 2060 c-10 -19 -8 -20 55 -20 37 0 65 -4 65 -10 0 -5 -10 -11
-22 -12 -13 -1 2 -4 32 -8 47 -6 38 -7 -60 -10 l-115 -4 140 -6 c129 -5 121
-6 -110 -9 -167 -3 -233 -6 -200 -11 28 -5 75 -9 105 -9 35 -1 51 -4 44 -11
-6 -6 -47 -6 -114 0 -109 9 -748 6 -758 -4 -3 -3 64 -7 149 -8 85 -1 123 -4
84 -5 -38 -2 -74 -8 -79 -14 -6 -5 -89 -10 -185 -10 -97 -1 -205 -4 -241 -8
l-65 -6 105 -10 105 -10 -110 -5 c-102 -4 -95 -5 85 -10 l195 -6 -220 -2
c-121 -1 -256 -8 -300 -14 l-80 -13 120 -5 120 -6 -161 -2 c-125 -2 -164 -5
-173 -16 -9 -11 -9 -15 1 -19 9 -4 7 -6 -4 -6 -9 -1 -19 -4 -21 -8 -3 -5 79
-7 181 -5 107 1 181 -1 174 -6 -9 -6 -6 -12 13 -20 14 -7 35 -12 45 -12 11 0
20 -4 20 -10 0 -6 -79 -10 -216 -10 -191 0 -215 -2 -204 -15 10 -13 58 -15
299 -17 l286 -3 -270 -5 c-148 -3 -263 -6 -255 -7 8 -1 161 -4 340 -7 181 -2
338 -8 355 -14 22 -7 -62 -11 -300 -11 -217 -1 -325 -5 -315 -11 8 -5 23 -10
33 -10 10 0 26 -7 34 -16 15 -14 50 -15 327 -9 171 4 320 11 331 16 19 7 19 8
-2 8 -13 1 -23 6 -23 11 0 7 118 9 338 8 185 -1 301 -4 257 -5 -52 -2 -84 -8
-90 -17 -8 -11 -91 -16 -385 -23 -329 -8 -350 -10 -170 -11 180 -2 246 -9 230
-26 -3 -2 -174 -8 -380 -13 -372 -8 -373 -8 -175 -13 l200 -6 -200 -4 -200 -4
125 -6 125 -6 -121 -2 c-119 -2 -134 -6 -134 -38 0 -2 136 -5 303 -7 l302 -2
-302 -3 c-194 -1 -303 -6 -303 -12 0 -6 57 -11 148 -12 l147 -2 -145 -6 -145
-5 180 -6 c169 -5 183 -7 232 -32 48 -25 62 -27 179 -27 l126 0 -6 25 -6 25
127 2 128 2 -135 6 -135 6 138 2 c86 1 137 -2 137 -8 0 -14 325 -13 352 1 14
8 23 8 31 0 8 -8 4 -11 -13 -12 -69 -3 71 -22 195 -26 238 -8 181 -23 -85 -23
-162 0 -240 4 -230 10 10 7 -25 10 -110 12 l-125 2 145 6 145 6 -158 2 c-151
2 -159 1 -164 -18 -4 -16 -15 -20 -52 -22 l-46 -1 45 -4 c25 -3 49 -8 55 -14
5 -5 -39 -9 -119 -9 -82 0 -125 4 -121 10 4 6 -34 10 -107 9 -106 0 -111 -1
-78 -14 52 -20 564 -21 612 -1 27 12 94 15 329 14 162 -1 281 -4 264 -8 -18
-5 20 -8 98 -9 73 -1 127 3 127 8 0 6 -19 12 -42 14 l-43 4 43 1 c30 1 42 6
42 17 0 13 -23 15 -142 17 l-143 2 145 6 145 6 -142 2 c-83 1 -143 6 -143 12
0 5 -26 11 -57 13 -32 2 -13 3 42 1 155 -4 295 6 295 22 0 11 -31 14 -147 16
l-148 2 150 6 150 6 -155 3 c-102 3 -140 6 -110 11 l45 6 -45 5 c-25 3 24 6
108 7 133 2 152 4 152 18 0 15 -9 16 -72 10 -40 -3 -161 -8 -268 -11 l-195 -4
130 14 c72 7 192 14 268 14 130 1 137 2 137 21 0 19 -7 20 -127 21 l-128 0 40
19 c29 13 65 19 128 19 69 1 87 4 87 15 0 11 -15 16 -52 19 l-53 3 53 2 c39 2
52 6 52 17 0 8 -8 15 -17 16 -15 0 -15 2 2 9 13 6 15 9 5 9 -9 1 -11 4 -5 9 6
4 11 24 13 45 2 31 0 37 -17 37 -31 0 -34 18 -4 23 16 2 -6 5 -47 7 l-75 4 75
6 c70 6 65 7 -60 10 l-135 4 135 6 135 6 -180 3 c-117 3 -164 6 -135 11 l45 7
-45 2 c-25 2 -56 6 -70 10 -24 7 -24 7 9 14 18 4 109 7 202 7 144 0 169 2 169
15 0 13 -27 15 -185 15 -117 0 -185 4 -185 10 0 6 71 11 188 12 l187 2 -135 6
-135 6 135 4 135 4 -195 6 -195 6 193 2 c185 2 192 3 192 22 0 19 -7 20 -195
20 -188 0 -195 1 -195 20 0 19 -7 20 -110 20 -99 0 -110 -2 -120 -20z m-472
-167 c-15 -2 -42 -2 -60 0 -18 2 -6 4 27 4 33 0 48 -2 33 -4z m0 -30 c-15 -2
-42 -2 -60 0 -18 2 -6 4 27 4 33 0 48 -2 33 -4z m10 -20 c-21 -2 -57 -2 -80 0
-24 2 -7 4 37 4 44 0 63 -2 43 -4z m-385 -10 c-29 -2 -77 -2 -105 0 -29 2 -6
3 52 3 58 0 81 -1 53 -3z m190 0 c-23 -2 -64 -2 -90 0 -26 2 -7 3 42 3 50 0
71 -1 48 -3z m205 -10 c-26 -2 -71 -2 -100 0 -29 2 -8 3 47 3 55 0 79 -1 53
-3z m82 -38 l23 -25 -159 1 c-95 1 -149 4 -134 9 14 4 19 8 11 9 -11 1 -11 4
-1 16 10 12 37 15 124 15 107 0 114 -1 136 -25z m377 -1 c-3 -3 -12 -4 -19 -1
-8 3 -5 6 6 6 11 1 17 -2 13 -5z m-277 -99 c0 -13 -33 -15 -241 -15 -214 0
-240 2 -229 15 19 22 470 22 470 0z m263 -12 c-7 -2 -19 -2 -25 0 -7 3 -2 5
12 5 14 0 19 -2 13 -5z m-371 -20 c-73 -2 -190 -2 -260 0 -70 1 -10 3 133 3
143 0 200 -2 127 -3z m811 0 c-13 -2 -33 -2 -45 0 -13 2 -3 4 22 4 25 0 35 -2
23 -4z m-730 -90 c-18 -2 -48 -2 -65 0 -18 2 -4 4 32 4 36 0 50 -2 33 -4z
m429 0 c-40 -2 -103 -2 -140 0 -37 2 -4 3 73 3 77 0 107 -2 67 -3z m-529 -50
c-56 -2 -151 -2 -210 0 -59 1 -14 3 102 3 116 0 164 -2 108 -3z m197 -23 c-69
-3 -105 -8 -80 -10 l45 -3 -50 -7 c-37 -5 -11 -8 95 -10 l145 -4 -165 -6 c-91
-4 -230 -8 -310 -9 -135 -1 -146 0 -158 19 -12 20 -9 20 110 22 l123 2 -165 6
c-117 4 -62 6 185 6 206 0 299 -2 225 -6z m-155 -70 c-4 -6 -65 -10 -150 -10
-85 0 -146 4 -150 10 -4 7 48 10 150 10 102 0 154 -3 150 -10z m540 0 c-27 -5
-113 -8 -190 -8 -92 1 -124 3 -95 8 25 4 110 7 190 7 105 0 131 -2 95 -7z"/>
<path d="M1428 2063 c34 -2 88 -2 120 0 31 2 3 3 -63 3 -66 0 -92 -1 -57 -3z"/>
<path d="M390 2050 c0 -6 47 -10 121 -10 77 0 118 4 114 10 -4 6 -55 10 -121
10 -69 0 -114 -4 -114 -10z"/>
<path d="M380 1996 c0 -14 12 -16 78 -15 42 1 106 5 142 9 l65 7 -66 1 c-36 1
-100 5 -142 8 -67 6 -77 5 -77 -10z"/>
<path d="M448 1953 c46 -2 118 -2 160 0 42 1 5 3 -83 3 -88 0 -123 -2 -77 -3z"/>
<path d="M2218 1893 c6 -2 18 -2 25 0 6 3 1 5 -13 5 -14 0 -19 -2 -12 -5z"/>
<path d="M280 1355 l0 -25 133 0 c129 0 134 1 157 25 l23 25 -156 0 -157 0 0
-25z"/>
<path d="M380 1310 c63 -4 167 -7 230 -7 l115 0 -110 7 c-60 4 -164 7 -230 7
l-120 0 115 -7z"/>
<path d="M1635 1291 l-110 -7 155 -4 155 -4 -205 -6 -205 -6 205 -3 c113 -2
195 -6 182 -8 -19 -4 -21 -7 -11 -19 10 -12 -1 -14 -72 -15 -83 -2 -82 -2 36
-10 156 -11 225 -5 225 22 0 18 8 19 130 19 123 0 130 1 130 20 0 18 -7 20
-73 20 -41 0 -154 2 -253 4 -98 2 -228 0 -289 -3z m423 -28 c-38 -2 -98 -2
-135 0 -38 2 -7 3 67 3 74 0 105 -1 68 -3z"/>
<path d="M362 1273 c32 -2 84 -2 115 0 32 2 6 3 -57 3 -63 0 -89 -1 -58 -3z"/>
<path d="M728 1243 c28 -2 76 -2 105 0 28 2 5 3 -53 3 -58 0 -81 -1 -52 -3z"/>
<path d="M365 1230 c61 -4 146 -7 190 -7 78 0 78 1 -25 7 -58 4 -143 7 -190 7
-85 0 -85 0 25 -7z"/>
<path d="M270 1202 c0 -36 105 -46 135 -12 18 20 17 20 -58 20 -43 0 -77 -4
-77 -8z"/>
<path d="M2160 1200 l-55 -7 73 -1 c42 -1 72 2 72 8 0 11 -4 11 -90 0z"/>
<path d="M1878 1183 c17 -2 47 -2 65 0 17 2 3 4 -33 4 -36 0 -50 -2 -32 -4z"/>
<path d="M2120 1170 c-27 -6 -15 -8 48 -9 49 0 82 3 82 9 0 11 -77 11 -130 0z"/>
<path d="M490 990 c-10 -7 14 -9 75 -9 63 1 81 4 60 9 -44 11 -118 11 -135 0z"/>
<path d="M1625 990 c-21 -5 -3 -8 60 -9 61 0 85 2 75 9 -17 11 -91 11 -135 0z"/>
<path d="M1800 974 c35 -7 450 -10 450 -2 0 4 -105 7 -232 7 -128 -1 -226 -3
-218 -5z"/>
<path d="M455 960 c-4 -7 62 -10 192 -9 135 1 182 4 148 9 -75 12 -333 12
-340 0z"/>
<path d="M1435 960 c-57 -11 -588 -30 -832 -30 -100 0 -163 -4 -163 -10 0 -6
86 -11 223 -13 l222 -2 -222 -3 c-141 -1 -223 -6 -223 -12 0 -6 78 -10 213
-11 265 0 365 -15 137 -20 -154 -3 -153 -3 75 -9 l230 -6 -170 -3 c-127 -3
-66 -6 240 -12 226 -4 444 -10 485 -13 41 -3 193 -8 338 -12 240 -7 262 -6
262 9 0 15 -23 17 -222 19 l-223 2 225 6 225 5 -225 5 -225 5 223 3 c140 1
222 6 222 12 0 6 -80 10 -220 10 -140 0 -220 4 -220 10 0 6 80 10 220 10 121
0 220 4 220 8 0 5 -123 7 -272 6 -172 -2 -251 1 -213 6 33 4 156 8 273 9 118
1 212 5 212 10 0 5 -114 12 -252 15 -139 3 -311 8 -383 10 -71 3 -152 1 -180
-4z m233 -107 c-10 -2 -28 -2 -40 0 -13 2 -5 4 17 4 22 1 32 -1 23 -4z m-45
-20 c-23 -2 -64 -2 -90 0 -26 2 -7 3 42 3 50 0 71 -1 48 -3z"/>
<path d="M467 853 c18 -2 50 -2 70 0 21 2 7 4 -32 4 -38 0 -55 -2 -38 -4z"/>
<path d="M441 836 c7 -7 139 -10 146 -3 3 4 -29 7 -72 7 -43 0 -76 -2 -74 -4z"/>
<path d="M500 789 c-47 -5 -42 -6 35 -6 50 -1 117 3 150 7 55 7 52 8 -35 7
-52 -1 -120 -4 -150 -8z"/>
<path d="M1663 793 c26 -2 68 -2 95 0 26 2 4 3 -48 3 -52 0 -74 -1 -47 -3z"/>
<path d="M1955 780 c-96 -5 -83 -6 93 -8 129 -1 202 2 202 8 0 11 -103 11
-295 0z"/>
<path d="M1093 763 c32 -2 81 -2 110 0 29 2 3 3 -58 3 -60 0 -84 -1 -52 -3z"/>
<path d="M1643 763 c32 -2 81 -2 110 0 29 2 3 3 -58 3 -60 0 -84 -1 -52 -3z"/>
<path d="M1925 750 c55 -3 93 -8 85 -12 -8 -4 -122 -10 -253 -13 -131 -4 -236
-9 -234 -11 2 -2 167 -1 365 2 342 7 362 8 362 26 0 17 -12 18 -212 16 -163
-1 -189 -3 -113 -8z"/>
<path d="M460 740 c0 -6 47 -10 121 -10 77 0 118 4 114 10 -4 6 -55 10 -121
10 -69 0 -114 -4 -114 -10z"/>
<path d="M475 710 c4 -6 62 -10 141 -10 88 0 133 4 129 10 -4 6 -62 10 -141
10 -88 0 -133 -4 -129 -10z"/>
<path d="M1720 700 c-36 -4 -101 -9 -145 -10 -76 -3 -77 -3 -30 -10 28 -4 43
-8 35 -9 -8 -1 -24 -4 -35 -6 -11 -2 -108 -8 -215 -12 -161 -7 -183 -9 -125
-15 39 -3 -29 -4 -150 -2 -121 2 -292 5 -380 6 l-160 2 185 6 185 6 -192 2
c-106 1 -193 -2 -193 -6 0 -29 30 -32 292 -32 172 0 268 -4 268 -10 0 -6 -96
-11 -262 -12 l-263 -3 285 -5 285 -5 -272 -3 c-237 -2 -272 -4 -267 -17 5 -13
44 -15 248 -17 l241 -3 -233 -2 c-149 -2 -231 -7 -227 -13 4 -6 122 -11 303
-12 l297 -3 -289 -2 -288 -3 25 -20 c24 -19 43 -20 364 -22 l338 -3 -335 -5
-335 -5 355 -3 c279 -2 364 -5 395 -17 36 -13 6 -14 -319 -15 -198 0 -357 -3
-353 -6 3 -4 342 -3 752 1 622 6 745 10 745 21 0 12 -60 14 -347 16 l-348 3
350 5 350 5 -333 3 c-219 1 -331 5 -327 12 4 7 -70 11 -212 12 -246 3 -178 5
422 17 l420 8 -288 1 c-189 1 -286 5 -282 12 4 6 100 11 248 12 l242 3 -239 2
c-209 3 -237 5 -226 18 10 13 57 15 289 15 270 0 277 1 278 20 2 20 -4 20
-258 20 -171 0 -258 3 -254 10 3 6 57 11 118 12 l112 2 -110 6 c-83 5 -49 7
143 8 160 1 252 6 252 12 0 6 -34 11 -77 12 l-78 2 80 5 c75 6 71 6 -74 14
-175 8 -287 7 -381 -3z m103 -107 c-72 -2 -194 -2 -270 0 -76 1 -16 3 132 3
149 0 211 -2 138 -3z"/>
<path d="M1918 493 c61 -2 163 -2 225 0 61 1 11 3 -113 3 -124 0 -174 -2 -112
-3z"/>
<path d="M1545 400 c17 -4 182 -11 368 -14 293 -5 337 -4 337 9 0 13 -50 15
-367 14 -207 0 -355 -4 -338 -9z"/>
<path d="M825 375 c23 -11 92 -14 300 -14 149 0 279 4 290 8 25 10 -220 21
-445 20 -157 -1 -172 -2 -145 -14z"/>
<path d="M1635 349 c121 -3 310 -6 420 -6 l200 1 -185 7 c-102 3 -291 6 -420
6 l-235 -1 220 -7z"/>
<path d="M965 329 c35 -11 250 -22 220 -11 -13 4 7 9 55 13 48 3 6 6 -115 6
-132 1 -181 -2 -160 -8z"/>
<path d="M2173 323 c15 -2 39 -2 55 0 15 2 2 4 -28 4 -30 0 -43 -2 -27 -4z"/>
</g>
</svg>
